0000000 4d 54 68 64 00 00 00 06 00 01 00 02 04 00 4d 54
0000020 72 6b 00 00 01 4d 00 ff 54 05 00 00 00 00 00 00
0000040 ff 58 04 04 02 18 08 00 ff 59 02 00 00 00 ff 51
0000060 03 07 a1 1f 00 ff 51 03 07 a1 23 81 90 00 ff 51
0000100 03 07 a1 23 82 00 ff 51 03 07 b2 72 82 00 ff 51
0000120 03 07 ba 40 82 00 ff 51 03 07 c3 19 82 00 ff 51
0000140 03 07 d4 05
0000144
