0000000 4d 54 68 64 00 00 00 06 00 01 00 02 04 00 4d 54
0000020 72 6b 00 00 00 2a 00 ff 54 05 00 00 00 00 00 00
0000040 ff 58 04 04 02 18 08 00 ff 59 02 00 00 00 ff 51
0000060 03 07 a1 1f 00 ff 51 03 07 a1 23 bf 7f ff 2f 00
0000100 4d 54 72 6b 00 00 00 91 00 ff 09 16 53 6d 61 72
0000120 74 4d 75 73 69 63 20 53 6f 66 74 53 79 6e 74 68
0000140 20 31 00 ff
0000144
